<svg xmlns="http://www.w3.org/2000/svg" xmlns:xlink="http://www.w3.org/1999/xlink" width="150" zoomAndPan="magnify" viewBox="0 0 112.5 112.499997" height="150" preserveAspectRatio="xMidYMid meet" version="1.0"><defs><clipPath id="c7eb4f622f"><path d="M 0 0 L 112.003906 0 L 112.003906 112.003906 L 0 112.003906 Z M 0 0 " clip-rule="nonzero"/></clipPath><clipPath id="efa673693b"><path d="M 56 0 C 25.074219 0 0 25.074219 0 56 C 0 86.929688 25.074219 112.003906 56 112.003906 C 86.929688 112.003906 112.003906 86.929688 112.003906 56 C 112.003906 25.074219 86.929688 0 56 0 Z M 56 0 " clip-rule="nonzero"/></clipPath><clipPath id="a50861d9ab"><path d="M 17 10 L 103 10 L 103 95 L 17 95 Z M 17 10 " clip-rule="nonzero"/></clipPath><clipPath id="815ecd653e"><path d="M 51.25 7.917969 L 103.011719 49.59375 L 58.058594 105.425781 L 6.296875 63.75 Z M 51.25 7.917969 " clip-rule="nonzero"/></clipPath><clipPath id="c6e367a80f"><path d="M 51.25 7.917969 L 103.011719 49.59375 L 58.058594 105.425781 L 6.296875 63.75 Z M 51.25 7.917969 " clip-rule="nonzero"/></clipPath></defs><g clip-path="url(#c7eb4f622f)"><g clip-path="url(#efa673693b)"><path fill="#3b82f6" d="M 0 0 L 112.003906 0 L 112.003906 112.003906 L 0 112.003906 Z M 0 0 " fill-opacity="1" fill-rule="nonzero"/></g></g><g clip-path="url(#a50861d9ab)"><g clip-path="url(#815ecd653e)"><g clip-path="url(#c6e367a80f)"><path fill="#ffffff" d="M 79.699219 72.574219 C 87.417969 64.8125 94.824219 57.453125 102.777344 49.40625 L 54.066406 10.183594 C 45.609375 18.847656 37.835938 26.671875 30.203125 34.328125 C 33.265625 40.046875 37.617188 44.152344 42.585938 47.507812 C 41.980469 48.632812 41.667969 49.835938 41.648438 51.113281 C 41.605469 51.707031 41.566406 52.292969 41.53125 52.875 C 41.191406 58.691406 42.085938 59.746094 43.28125 65.96875 C 41.824219 66.640625 40.375 67.296875 38.941406 67.941406 C 38.503906 66.859375 37.890625 65.894531 37.09375 65.042969 C 36.296875 64.195312 35.375 63.515625 34.324219 63.011719 C 33.082031 62.351562 31.773438 61.882812 30.398438 61.609375 C 26.628906 60.804688 22.753906 61.5 20.238281 63.984375 C 16.65625 67.523438 17.402344 73.058594 21.746094 76.546875 C 21.929688 76.695312 22.109375 76.839844 22.289062 76.984375 L 22.347656 77.03125 L 22.535156 77.183594 C 23.230469 77.667969 23.96875 78.066406 24.753906 78.378906 C 25.539062 78.691406 26.351562 78.914062 27.1875 79.042969 C 28.023438 79.171875 28.863281 79.203125 29.703125 79.140625 C 30.546875 79.078125 31.375 78.921875 32.179688 78.667969 L 32.363281 78.613281 C 34.597656 77.839844 36.765625 76.914062 38.867188 75.828125 C 40.648438 74.910156 42.472656 74.089844 44.34375 73.367188 C 44.273438 75.042969 44.046875 76.699219 43.660156 78.332031 C 43.183594 80.402344 42.839844 82.492188 42.625 84.605469 L 42.617188 84.773438 C 42.558594 85.578125 42.605469 86.371094 42.761719 87.160156 C 42.917969 87.949219 43.175781 88.707031 43.535156 89.425781 C 43.894531 90.144531 44.34375 90.804688 44.882812 91.402344 C 45.421875 92 46.027344 92.515625 46.707031 92.949219 C 51.507812 95.957031 58.445312 94.726562 62.144531 90.261719 C 65.84375 85.796875 65.671875 78.855469 60.820312 75.929688 C 59.65625 75.273438 58.414062 74.839844 57.097656 74.625 C 55.78125 74.414062 54.464844 74.433594 53.15625 74.6875 C 53.367188 73.332031 53.570312 71.996094 53.757812 70.675781 C 61.738281 68.375 69.21875 65.644531 70.734375 65.121094 C 67.378906 62.636719 63.839844 60.449219 60.117188 58.558594 C 58.238281 59.417969 56.355469 60.285156 54.46875 61.15625 C 54.40625 58.824219 54.324219 56.519531 54.25 54.1875 C 63.769531 59.03125 73.5 63.609375 79.699219 72.574219 Z M 26.445312 72.316406 C 24.929688 71.371094 24.523438 69.613281 25.546875 68.378906 C 26.570312 67.148438 28.625 66.933594 30.183594 67.828125 C 31.742188 68.722656 32.183594 70.441406 31.128906 71.710938 C 30.835938 72.027344 30.496094 72.285156 30.113281 72.480469 C 29.730469 72.679688 29.324219 72.804688 28.898438 72.863281 C 28.46875 72.917969 28.046875 72.898438 27.625 72.804688 C 27.203125 72.710938 26.808594 72.550781 26.445312 72.316406 Z M 56.28125 81.574219 C 57.804688 82.515625 57.988281 84.550781 56.789062 86 C 56.5 86.355469 56.15625 86.652344 55.761719 86.890625 C 55.363281 87.125 54.941406 87.289062 54.488281 87.375 C 54.035156 87.460938 53.582031 87.46875 53.125 87.394531 C 52.671875 87.316406 52.242188 87.167969 51.839844 86.941406 C 51.664062 86.828125 51.5 86.699219 51.355469 86.554688 C 51.207031 86.40625 51.074219 86.242188 50.964844 86.066406 C 50.851562 85.890625 50.757812 85.707031 50.6875 85.511719 C 50.617188 85.3125 50.566406 85.113281 50.539062 84.90625 C 50.511719 84.699219 50.507812 84.492188 50.527344 84.28125 C 50.542969 84.074219 50.582031 83.871094 50.644531 83.671875 C 50.710938 83.472656 50.792969 83.285156 50.898438 83.101562 C 51 82.921875 51.125 82.753906 51.265625 82.601562 C 51.558594 82.238281 51.902344 81.933594 52.304688 81.691406 C 52.703125 81.445312 53.128906 81.277344 53.589844 81.183594 C 54.046875 81.089844 54.507812 81.078125 54.96875 81.144531 C 55.433594 81.210938 55.871094 81.355469 56.28125 81.574219 Z M 50.320312 66.183594 C 50.414062 66.210938 50.503906 66.253906 50.585938 66.304688 C 50.667969 66.359375 50.746094 66.417969 50.8125 66.492188 C 50.878906 66.5625 50.9375 66.640625 50.988281 66.726562 C 51.035156 66.8125 51.070312 66.902344 51.09375 67 C 51.121094 67.09375 51.132812 67.191406 51.132812 67.289062 C 51.132812 67.390625 51.121094 67.484375 51.097656 67.582031 C 51.070312 67.675781 51.035156 67.769531 50.988281 67.855469 C 50.941406 67.941406 50.882812 68.019531 50.816406 68.089844 C 50.492188 68.445312 50.097656 68.675781 49.625 68.78125 C 49.15625 68.886719 48.699219 68.847656 48.257812 68.664062 C 48.066406 68.601562 47.902344 68.5 47.765625 68.355469 C 47.628906 68.207031 47.535156 68.039062 47.488281 67.847656 C 47.4375 67.652344 47.4375 67.460938 47.484375 67.265625 C 47.535156 67.074219 47.625 66.902344 47.761719 66.757812 C 48.089844 66.40625 48.484375 66.179688 48.953125 66.074219 C 49.417969 65.96875 49.875 66.007812 50.320312 66.183594 Z M 54.144531 50.464844 C 54.070312 46.765625 54.046875 42.992188 54.195312 39.023438 C 54.238281 38.761719 54.203125 38.511719 54.089844 38.273438 C 53.976562 38.035156 53.804688 37.847656 53.574219 37.71875 C 53.035156 37.390625 52.46875 37.339844 51.878906 37.570312 C 49.015625 39.570312 46.503906 41.941406 44.34375 44.683594 C 42.476562 43.402344 40.714844 41.984375 39.0625 40.433594 C 38.636719 40.035156 38.21875 39.625 37.8125 39.203125 C 38.222656 39.621094 38.640625 40.03125 39.070312 40.425781 C 41.714844 37.738281 41.632812 33.550781 39.269531 30.613281 C 42.441406 27.402344 45.675781 24.101562 49.007812 20.691406 C 51.628906 23.324219 56.28125 22.796875 59.199219 19.773438 C 70.023438 28.488281 81.628906 36.230469 92.324219 45.117188 C 90.019531 47.378906 90.417969 51.167969 92.996094 53.855469 C 90.054688 56.824219 87.121094 59.738281 84.128906 62.734375 C 81.683594 59.878906 77.332031 60.027344 74.785156 62.59375 C 68.683594 57.59375 61.28125 54.214844 54.144531 50.464844 Z M 73.679688 45.488281 C 71.019531 48.789062 65.585938 49.738281 61.523438 47.621094 C 57.460938 45.507812 56.601562 40.769531 59.585938 37.0625 C 62.570312 33.355469 68.03125 32.378906 71.734375 34.9375 C 75.441406 37.496094 76.335938 42.1875 73.679688 45.488281 Z M 73.679688 45.488281 " fill-opacity="1" fill-rule="nonzero"/></g></g></g></svg>