<svg xmlns="http://www.w3.org/2000/svg" xmlns:xlink="http://www.w3.org/1999/xlink" width="150" zoomAndPan="magnify" viewBox="0 0 112.5 112.499997" height="150" preserveAspectRatio="xMidYMid meet" version="1.0"><defs><clipPath id="a864f6b636"><path d="M 0 0 L 112.003906 0 L 112.003906 112.003906 L 0 112.003906 Z M 0 0 " clip-rule="nonzero"/></clipPath><clipPath id="35431852a0"><path d="M 56 0 C 25.074219 0 0 25.074219 0 56 C 0 86.929688 25.074219 112.003906 56 112.003906 C 86.929688 112.003906 112.003906 86.929688 112.003906 56 C 112.003906 25.074219 86.929688 0 56 0 Z M 56 0 " clip-rule="nonzero"/></clipPath><clipPath id="b5f3bcb9c0"><path d="M 18.269531 52 L 95 52 L 95 93 L 18.269531 93 Z M 18.269531 52 " clip-rule="nonzero"/></clipPath><clipPath id="645f626ec3"><path d="M 35 14.597656 L 80 14.597656 L 80 59 L 35 59 Z M 35 14.597656 " clip-rule="nonzero"/></clipPath></defs><g clip-path="url(#a864f6b636)"><g clip-path="url(#35431852a0)"><path fill="#3b82f6" d="M 0 0 L 112.003906 0 L 112.003906 112.003906 L 0 112.003906 Z M 0 0 " fill-opacity="1" fill-rule="nonzero"/></g></g><g clip-path="url(#b5f3bcb9c0)"><path fill="#ffffff" d="M 93.238281 54.527344 C 93.007812 54.25 92.75 53.996094 92.46875 53.769531 C 92.183594 53.546875 91.882812 53.347656 91.5625 53.179688 C 91.242188 53.015625 90.90625 52.878906 90.558594 52.777344 C 90.214844 52.675781 89.859375 52.609375 89.5 52.578125 C 89.140625 52.542969 88.777344 52.546875 88.417969 52.585938 C 88.058594 52.625 87.707031 52.695312 87.359375 52.804688 C 87.015625 52.910156 86.683594 53.050781 86.367188 53.222656 C 86.046875 53.394531 85.75 53.597656 85.472656 53.828125 L 71.335938 65.597656 C 70.886719 65.035156 70.34375 64.585938 69.707031 64.25 C 69.070312 63.914062 68.394531 63.71875 67.679688 63.664062 C 64.621094 63.304688 55.851562 63.042969 53.136719 61.84375 C 49.210938 60.625 41.488281 60.199219 37.347656 63.136719 L 30.445312 67.101562 L 29.429688 65.53125 C 29.332031 65.371094 29.207031 65.238281 29.054688 65.132812 C 28.90625 65.027344 28.738281 64.953125 28.558594 64.910156 C 28.378906 64.871094 28.199219 64.867188 28.015625 64.898438 C 27.832031 64.929688 27.664062 64.996094 27.507812 65.097656 L 18.898438 70.621094 C 18.742188 70.722656 18.609375 70.847656 18.507812 71 C 18.402344 71.148438 18.328125 71.316406 18.289062 71.496094 C 18.25 71.675781 18.246094 71.855469 18.28125 72.039062 C 18.3125 72.21875 18.378906 72.386719 18.480469 72.542969 L 30.933594 92.007812 C 31.03125 92.164062 31.160156 92.292969 31.3125 92.398438 C 31.464844 92.503906 31.632812 92.578125 31.8125 92.617188 C 31.992188 92.65625 32.175781 92.65625 32.359375 92.625 C 32.539062 92.589844 32.710938 92.523438 32.867188 92.425781 L 41.480469 86.914062 C 41.632812 86.8125 41.757812 86.6875 41.863281 86.535156 C 41.964844 86.382812 42.039062 86.21875 42.078125 86.039062 C 42.117188 85.859375 42.121094 85.679688 42.089844 85.5 C 42.058594 85.320312 41.992188 85.152344 41.894531 84.996094 L 40.742188 83.1875 C 40.734375 83.183594 42.003906 82.523438 42 82.519531 C 42.445312 82.289062 42.910156 82.226562 43.394531 82.34375 C 45.242188 82.675781 58.339844 86.132812 59.949219 85.917969 C 61.277344 85.917969 62.570312 85.695312 63.820312 85.246094 C 65.070312 84.796875 66.210938 84.148438 67.238281 83.300781 L 92.53125 62.328125 C 92.8125 62.097656 93.066406 61.835938 93.292969 61.554688 C 93.519531 61.269531 93.71875 60.96875 93.886719 60.644531 C 94.054688 60.324219 94.191406 59.988281 94.292969 59.640625 C 94.398438 59.289062 94.464844 58.9375 94.496094 58.574219 C 94.53125 58.210938 94.527344 57.847656 94.488281 57.488281 C 94.449219 57.125 94.378906 56.773438 94.269531 56.425781 C 94.164062 56.078125 94.023438 55.746094 93.847656 55.425781 C 93.675781 55.105469 93.472656 54.804688 93.238281 54.527344 Z M 90.757812 60.1875 L 65.460938 81.160156 C 64.421875 82.015625 63.246094 82.597656 61.9375 82.90625 C 60.628906 83.214844 59.316406 83.214844 58.007812 82.910156 L 44.03125 79.632812 C 43.183594 79.503906 42.34375 79.542969 41.515625 79.75 C 40.683594 79.957031 39.921875 80.316406 39.234375 80.832031 L 31.949219 69.453125 L 38.75 65.542969 C 44.667969 61.824219 51.332031 64.59375 57.074219 65.570312 L 67.441406 66.449219 C 67.765625 66.472656 68.070312 66.5625 68.359375 66.707031 C 68.648438 66.855469 68.898438 67.050781 69.113281 67.292969 C 69.324219 67.539062 69.484375 67.816406 69.589844 68.121094 C 69.695312 68.429688 69.738281 68.742188 69.71875 69.066406 C 69.703125 69.390625 69.625 69.699219 69.484375 69.992188 C 69.347656 70.285156 69.15625 70.539062 68.917969 70.761719 C 68.679688 70.980469 68.410156 71.144531 68.105469 71.257812 C 67.800781 71.371094 67.488281 71.425781 67.164062 71.414062 L 49.269531 70.914062 C 49.085938 70.910156 48.910156 70.941406 48.742188 71.011719 C 48.570312 71.078125 48.417969 71.171875 48.289062 71.300781 C 48.15625 71.425781 48.050781 71.574219 47.976562 71.738281 C 47.902344 71.90625 47.863281 72.082031 47.859375 72.265625 C 47.851562 72.445312 47.882812 72.625 47.945312 72.796875 C 48.011719 72.964844 48.105469 73.117188 48.230469 73.253906 C 48.351562 73.386719 48.5 73.492188 48.664062 73.570312 C 48.828125 73.644531 49.003906 73.6875 49.1875 73.695312 L 67.078125 74.199219 C 67.792969 74.226562 68.484375 74.113281 69.148438 73.855469 C 69.816406 73.59375 70.402344 73.214844 70.90625 72.707031 C 71.5 72.132812 71.9375 71.457031 72.210938 70.679688 C 72.484375 69.898438 72.570312 69.097656 72.464844 68.277344 L 87.25 55.96875 C 87.53125 55.742188 87.84375 55.578125 88.191406 55.472656 C 88.535156 55.371094 88.886719 55.335938 89.246094 55.375 C 89.605469 55.410156 89.941406 55.511719 90.261719 55.679688 C 90.578125 55.851562 90.851562 56.074219 91.082031 56.351562 C 91.3125 56.628906 91.484375 56.9375 91.589844 57.28125 C 91.699219 57.625 91.738281 57.976562 91.707031 58.335938 C 91.675781 58.695312 91.578125 59.035156 91.414062 59.355469 C 91.25 59.675781 91.03125 59.953125 90.757812 60.1875 Z M 90.757812 60.1875 " fill-opacity="1" fill-rule="nonzero"/></g><g clip-path="url(#645f626ec3)"><path fill="#ffffff" d="M 45.570312 55.078125 C 59.695312 64.472656 79.453125 53.890625 79.308594 36.644531 C 79.308594 35.925781 79.273438 35.210938 79.203125 34.496094 C 79.128906 33.785156 79.023438 33.074219 78.882812 32.371094 C 78.742188 31.667969 78.566406 30.972656 78.359375 30.285156 C 78.148438 29.601562 77.90625 28.925781 77.632812 28.261719 C 77.359375 27.601562 77.050781 26.953125 76.710938 26.320312 C 76.375 25.6875 76.003906 25.074219 75.605469 24.476562 C 75.207031 23.878906 74.78125 23.304688 74.324219 22.75 C 73.871094 22.195312 73.390625 21.664062 72.882812 21.15625 C 72.375 20.652344 71.84375 20.167969 71.289062 19.714844 C 70.734375 19.257812 70.160156 18.832031 69.5625 18.433594 C 68.964844 18.035156 68.351562 17.664062 67.71875 17.328125 C 67.085938 16.988281 66.441406 16.683594 65.777344 16.40625 C 65.113281 16.132812 64.441406 15.890625 63.753906 15.679688 C 63.066406 15.472656 62.371094 15.296875 61.667969 15.15625 C 60.964844 15.015625 60.257812 14.910156 59.542969 14.839844 C 58.828125 14.765625 58.113281 14.730469 57.394531 14.730469 C 35.445312 14.925781 27.394531 43.335938 45.570312 55.078125 Z M 57.394531 17.511719 C 75.128906 17.511719 83.1875 39.835938 69.847656 51.171875 C 69.765625 50.261719 69.589844 49.371094 69.3125 48.503906 C 69.039062 47.632812 68.671875 46.804688 68.214844 46.015625 C 67.757812 45.226562 67.222656 44.496094 66.605469 43.824219 C 65.988281 43.148438 65.308594 42.550781 64.5625 42.027344 C 64.070312 42.460938 63.542969 42.847656 62.984375 43.1875 C 62.421875 43.523438 61.835938 43.808594 61.222656 44.042969 C 60.609375 44.273438 59.980469 44.449219 59.335938 44.566406 C 58.695312 44.683594 58.042969 44.742188 57.390625 44.742188 C 56.734375 44.742188 56.085938 44.683594 55.441406 44.566406 C 54.796875 44.449219 54.167969 44.273438 53.554688 44.042969 C 52.941406 43.808594 52.355469 43.523438 51.792969 43.1875 C 51.234375 42.847656 50.707031 42.460938 50.214844 42.027344 C 49.46875 42.550781 48.789062 43.148438 48.171875 43.820312 C 47.554688 44.492188 47.019531 45.222656 46.5625 46.015625 C 46.109375 46.804688 45.746094 47.632812 45.472656 48.503906 C 45.199219 49.371094 45.019531 50.261719 44.941406 51.171875 C 31.601562 39.839844 39.664062 17.511719 57.394531 17.511719 Z M 57.394531 17.511719 " fill-opacity="1" fill-rule="nonzero"/></g><path fill="#ffffff" d="M 52.914062 40.597656 C 53.175781 40.769531 53.445312 40.929688 53.726562 41.070312 C 54.007812 41.214844 54.292969 41.339844 54.585938 41.449219 C 54.882812 41.558594 55.179688 41.652344 55.484375 41.726562 C 55.789062 41.800781 56.097656 41.855469 56.410156 41.894531 C 56.722656 41.933594 57.035156 41.953125 57.347656 41.957031 C 57.664062 41.957031 57.976562 41.941406 58.289062 41.90625 C 58.601562 41.871094 58.910156 41.820312 59.214844 41.75 C 59.519531 41.675781 59.820312 41.589844 60.117188 41.484375 C 60.410156 41.378906 60.699219 41.253906 60.980469 41.117188 C 61.261719 40.976562 61.535156 40.820312 61.796875 40.648438 C 62.0625 40.480469 62.3125 40.292969 62.554688 40.09375 C 62.796875 39.890625 63.023438 39.675781 63.242188 39.449219 C 63.457031 39.222656 63.660156 38.984375 63.847656 38.734375 C 64.039062 38.480469 64.210938 38.21875 64.367188 37.949219 C 64.527344 37.679688 64.667969 37.398438 64.792969 37.109375 C 64.917969 36.824219 65.027344 36.527344 65.117188 36.226562 C 65.210938 35.929688 65.28125 35.625 65.339844 35.3125 C 65.394531 35.003906 65.429688 34.695312 65.449219 34.382812 C 65.46875 34.066406 65.472656 33.753906 65.453125 33.441406 C 65.4375 33.128906 65.402344 32.816406 65.347656 32.507812 C 65.292969 32.199219 65.222656 31.890625 65.132812 31.589844 C 65.042969 31.289062 64.9375 30.996094 64.8125 30.707031 C 64.6875 30.417969 64.550781 30.136719 64.390625 29.867188 C 64.234375 29.59375 64.0625 29.332031 63.878906 29.082031 C 63.691406 28.828125 63.488281 28.585938 63.273438 28.359375 C 63.058594 28.128906 62.832031 27.914062 62.589844 27.714844 C 62.351562 27.511719 62.101562 27.324219 61.835938 27.152344 C 61.574219 26.976562 61.304688 26.820312 61.023438 26.679688 C 60.742188 26.539062 60.457031 26.414062 60.160156 26.308594 C 59.867188 26.199219 59.566406 26.109375 59.261719 26.039062 C 58.953125 25.964844 58.644531 25.910156 58.335938 25.875 C 58.023438 25.835938 57.710938 25.820312 57.394531 25.820312 C 56.539062 25.835938 55.703125 25.984375 54.894531 26.265625 C 54.082031 26.542969 53.335938 26.945312 52.652344 27.460938 C 51.96875 27.976562 51.382812 28.589844 50.890625 29.292969 C 50.402344 29.996094 50.03125 30.757812 49.78125 31.578125 C 49.535156 32.398438 49.417969 33.238281 49.433594 34.09375 C 49.453125 34.953125 49.601562 35.785156 49.882812 36.597656 C 50.164062 37.40625 50.5625 38.152344 51.082031 38.835938 C 51.601562 39.519531 52.210938 40.105469 52.914062 40.597656 Z M 52.914062 40.597656 " fill-opacity="1" fill-rule="nonzero"/></svg>