<svg xmlns="http://www.w3.org/2000/svg" xmlns:xlink="http://www.w3.org/1999/xlink" width="150" zoomAndPan="magnify" viewBox="0 0 112.5 112.499997" height="150" preserveAspectRatio="xMidYMid meet" version="1.0"><defs><clipPath id="e1c47a4ab5"><path d="M 0 0 L 112.003906 0 L 112.003906 112.003906 L 0 112.003906 Z M 0 0 " clip-rule="nonzero"/></clipPath><clipPath id="60b3f9f66c"><path d="M 56 0 C 25.074219 0 0 25.074219 0 56 C 0 86.929688 25.074219 112.003906 56 112.003906 C 86.929688 112.003906 112.003906 86.929688 112.003906 56 C 112.003906 25.074219 86.929688 0 56 0 Z M 56 0 " clip-rule="nonzero"/></clipPath><clipPath id="e6ff4235a6"><path d="M 37 31 L 98.800781 31 L 98.800781 70 L 37 70 Z M 37 31 " clip-rule="nonzero"/></clipPath><clipPath id="04c9f029ae"><path d="M 19.652344 17.640625 L 90 17.640625 L 90 92.308594 L 19.652344 92.308594 Z M 19.652344 17.640625 " clip-rule="nonzero"/></clipPath><clipPath id="ae9b9a7e0e"><path d="M 37 31 L 98.800781 31 L 98.800781 70 L 37 70 Z M 37 31 " clip-rule="nonzero"/></clipPath></defs><g clip-path="url(#e1c47a4ab5)"><g clip-path="url(#60b3f9f66c)"><path fill="#3b82f6" d="M 0 0 L 112.003906 0 L 112.003906 112.003906 L 0 112.003906 Z M 0 0 " fill-opacity="1" fill-rule="nonzero"/></g></g><g clip-path="url(#e6ff4235a6)"><path fill="#ffffff" d="M 54.605469 69.054688 C 53.496094 69.054688 52.394531 68.578125 51.628906 67.664062 L 38.519531 51.957031 C 37.148438 50.316406 37.367188 47.871094 39.015625 46.5 C 40.65625 45.128906 43.097656 45.347656 44.472656 46.992188 L 55.226562 59.878906 L 92.390625 32.09375 C 94.105469 30.8125 96.535156 31.164062 97.816406 32.878906 C 99.097656 34.59375 98.746094 37.023438 97.035156 38.304688 L 56.925781 68.28125 C 56.230469 68.804688 55.414062 69.054688 54.605469 69.054688 Z M 54.605469 69.054688 " fill-opacity="1" fill-rule="nonzero"/></g><path fill="#ffffff" d="M 62.75 27.636719 L 58.773438 30.8125 C 65.515625 31.839844 71.453125 35.359375 75.605469 40.398438 L 81.964844 35.640625 C 81.175781 34.664062 80.335938 33.726562 79.445312 32.835938 C 77.863281 31.25 76.121094 29.8125 74.265625 28.558594 C 72.394531 27.296875 70.390625 26.210938 68.316406 25.332031 C 65.371094 24.085938 62.300781 23.257812 59.148438 22.859375 L 62.8125 26.902344 C 63 27.121094 62.972656 27.453125 62.75 27.636719 Z M 62.75 27.636719 " fill-opacity="1" fill-rule="nonzero"/><g clip-path="url(#04c9f029ae)"><path fill="#ffffff" d="M 81.554688 54.117188 C 81.703125 55.257812 81.78125 56.421875 81.78125 57.605469 C 81.78125 72.546875 69.621094 84.703125 54.679688 84.703125 C 39.738281 84.703125 27.582031 72.546875 27.582031 57.605469 C 27.582031 44.804688 36.5 34.054688 48.445312 31.226562 L 48.445312 34.773438 C 48.445312 35.214844 48.972656 35.441406 49.292969 35.140625 L 58.046875 26.910156 C 58.257812 26.710938 58.257812 26.375 58.046875 26.175781 L 49.292969 17.941406 C 48.972656 17.640625 48.445312 17.867188 48.445312 18.308594 L 48.445312 23.132812 C 45.910156 23.585938 43.4375 24.320312 41.046875 25.332031 C 38.972656 26.210938 36.96875 27.296875 35.097656 28.5625 C 33.246094 29.816406 31.503906 31.253906 29.917969 32.839844 C 28.332031 34.421875 26.894531 36.167969 25.644531 38.019531 C 24.378906 39.890625 23.292969 41.894531 22.414062 43.96875 C 20.585938 48.289062 19.660156 52.875 19.660156 57.601562 C 19.660156 62.328125 20.585938 66.914062 22.414062 71.234375 C 23.292969 73.3125 24.378906 75.3125 25.644531 77.183594 C 26.894531 79.035156 28.332031 80.78125 29.917969 82.363281 C 31.503906 83.949219 33.246094 85.386719 35.097656 86.640625 C 36.972656 87.90625 38.972656 88.992188 41.046875 89.871094 C 45.371094 91.695312 49.957031 92.625 54.679688 92.625 C 59.410156 92.625 63.996094 91.695312 68.316406 89.871094 C 70.390625 88.992188 72.394531 87.90625 74.265625 86.640625 C 76.117188 85.386719 77.859375 83.949219 79.445312 82.363281 C 81.027344 80.78125 82.464844 79.035156 83.71875 77.183594 C 84.984375 75.3125 86.070312 73.308594 86.949219 71.234375 C 88.777344 66.914062 89.703125 62.328125 89.703125 57.601562 C 89.703125 54.617188 89.335938 51.6875 88.601562 48.847656 Z M 81.554688 54.117188 " fill-opacity="1" fill-rule="nonzero"/></g><g clip-path="url(#ae9b9a7e0e)"><path fill="#ffffff" d="M 54.605469 69.054688 C 53.496094 69.054688 52.394531 68.578125 51.628906 67.664062 L 38.519531 51.957031 C 37.148438 50.316406 37.367188 47.871094 39.015625 46.5 C 40.65625 45.128906 43.097656 45.347656 44.472656 46.992188 L 55.226562 59.878906 L 92.390625 32.09375 C 94.105469 30.8125 96.535156 31.164062 97.816406 32.878906 C 99.097656 34.59375 98.746094 37.023438 97.035156 38.304688 L 56.925781 68.28125 C 56.230469 68.804688 55.414062 69.054688 54.605469 69.054688 Z M 54.605469 69.054688 " fill-opacity="1" fill-rule="nonzero"/></g></svg>