<svg xmlns="http://www.w3.org/2000/svg" xmlns:xlink="http://www.w3.org/1999/xlink" width="150" zoomAndPan="magnify" viewBox="0 0 112.5 112.499997" height="150" preserveAspectRatio="xMidYMid meet" version="1.0"><defs><clipPath id="6973af3522"><path d="M 0 0 L 112.003906 0 L 112.003906 112.003906 L 0 112.003906 Z M 0 0 " clip-rule="nonzero"/></clipPath><clipPath id="dcd563bb8a"><path d="M 56 0 C 25.074219 0 0 25.074219 0 56 C 0 86.929688 25.074219 112.003906 56 112.003906 C 86.929688 112.003906 112.003906 86.929688 112.003906 56 C 112.003906 25.074219 86.929688 0 56 0 Z M 56 0 " clip-rule="nonzero"/></clipPath><clipPath id="969d57ad30"><path d="M 14.167969 47 L 42 47 L 42 53 L 14.167969 53 Z M 14.167969 47 " clip-rule="nonzero"/></clipPath><clipPath id="9d696421fc"><path d="M 34 15.921875 L 94.808594 15.921875 L 94.808594 94.324219 L 34 94.324219 Z M 34 15.921875 " clip-rule="nonzero"/></clipPath></defs><g clip-path="url(#6973af3522)"><g clip-path="url(#dcd563bb8a)"><path fill="#3b82f6" d="M 0 0 L 112.003906 0 L 112.003906 112.003906 L 0 112.003906 Z M 0 0 " fill-opacity="1" fill-rule="nonzero"/></g></g><g clip-path="url(#969d57ad30)"><path fill="#ffffff" d="M 41.441406 49.652344 C 41.441406 48.21875 40.277344 47.054688 38.84375 47.054688 L 16.765625 47.054688 C 15.332031 47.054688 14.167969 48.21875 14.167969 49.652344 C 14.167969 51.078125 15.332031 52.242188 16.765625 52.242188 L 38.84375 52.242188 C 40.277344 52.242188 41.441406 51.078125 41.441406 49.652344 " fill-opacity="1" fill-rule="nonzero"/></g><path fill="#ffffff" d="M 41.441406 74.273438 C 41.441406 72.839844 40.277344 71.675781 38.84375 71.675781 L 23.269531 71.675781 C 21.839844 71.675781 20.675781 72.839844 20.675781 74.273438 C 20.675781 75.707031 21.839844 76.871094 23.269531 76.871094 L 38.84375 76.871094 C 40.277344 76.871094 41.441406 75.707031 41.441406 74.273438 " fill-opacity="1" fill-rule="nonzero"/><path fill="#ffffff" d="M 38.84375 59.382812 L 28.660156 59.382812 C 27.226562 59.382812 26.0625 60.546875 26.0625 61.976562 C 26.0625 63.410156 27.226562 64.574219 28.660156 64.574219 L 38.84375 64.574219 C 40.167969 64.574219 41.265625 63.578125 41.417969 62.292969 L 41.421875 61.992188 C 41.425781 61.300781 41.160156 60.644531 40.671875 60.152344 C 40.183594 59.65625 39.535156 59.386719 38.84375 59.382812 " fill-opacity="1" fill-rule="nonzero"/><g clip-path="url(#9d696421fc)"><path fill="#ffffff" d="M 87.628906 38.425781 C 87.628906 38.425781 92.421875 32.472656 92.570312 32.09375 C 93.203125 30.507812 92.785156 28.910156 91.660156 27.871094 C 90.410156 26.71875 88.574219 26.597656 87.195312 27.464844 C 86.921875 27.636719 81.367188 32.09375 81.367188 32.09375 C 76.511719 28.296875 70.722656 25.871094 64.613281 25.074219 L 63.859375 24.980469 L 64.578125 21.238281 C 67.117188 20.808594 69.050781 18.601562 69.050781 15.945312 L 50.710938 15.945312 C 50.710938 18.804688 52.949219 21.136719 55.769531 21.304688 L 56.472656 24.945312 L 55.71875 25.039062 C 47.835938 26.082031 40.683594 29.703125 35.242188 35.363281 C 33.933594 36.730469 33.855469 38.867188 35.066406 40.320312 C 36.476562 42 39.039062 42.113281 40.5625 40.53125 C 45.363281 35.554688 51.984375 32.507812 58.984375 32.203125 C 73.917969 31.546875 86.625 43.203125 87.273438 58.164062 C 87.585938 65.40625 85.058594 72.34375 80.152344 77.683594 C 75.257812 83.027344 68.566406 86.144531 61.316406 86.453125 C 55.652344 86.699219 50.164062 85.199219 45.492188 82.191406 C 44.878906 81.792969 44.175781 81.601562 43.46875 81.601562 C 42.671875 81.601562 41.867188 81.851562 41.183594 82.335938 C 39.054688 83.871094 39.019531 87.042969 41.140625 88.601562 C 41.960938 89.207031 42.726562 89.734375 43.339844 90.070312 C 48.582031 93.003906 54.519531 94.519531 60.703125 94.425781 C 69.925781 94.277344 78.546875 90.546875 84.972656 83.917969 C 91.394531 77.292969 94.84375 68.5625 94.707031 59.339844 C 94.722656 51.800781 92.214844 44.386719 87.628906 38.425781 " fill-opacity="1" fill-rule="nonzero"/></g><path fill="#ffffff" d="M 63.855469 64.320312 C 64.164062 64.085938 64.449219 63.824219 64.710938 63.539062 C 64.839844 63.402344 64.953125 63.265625 65.054688 63.117188 L 65.6875 62.113281 L 74.113281 48.640625 C 74.289062 48.371094 74.402344 48.078125 74.453125 47.785156 C 74.652344 46.910156 74.390625 45.976562 73.722656 45.316406 C 73.34375 44.9375 72.875 44.695312 72.382812 44.601562 C 71.699219 44.472656 70.972656 44.601562 70.359375 45.007812 L 57.476562 53.667969 C 56.871094 53.941406 56.324219 54.316406 55.839844 54.773438 L 55.824219 54.785156 C 54.820312 55.71875 54.117188 57 53.910156 58.472656 C 53.425781 61.878906 55.816406 65.046875 59.234375 65.519531 C 60.875 65.757812 62.519531 65.332031 63.855469 64.320312 " fill-opacity="1" fill-rule="nonzero"/></svg>