<svg xmlns="http://www.w3.org/2000/svg" xmlns:xlink="http://www.w3.org/1999/xlink" width="150" zoomAndPan="magnify" viewBox="0 0 112.5 112.499997" height="150" preserveAspectRatio="xMidYMid meet" version="1.0"><defs><clipPath id="726f6e4609"><path d="M 1.195312 6.515625 L 110.957031 6.515625 L 110.957031 105.824219 L 1.195312 105.824219 Z M 1.195312 6.515625 " clip-rule="nonzero"/></clipPath></defs><path fill="#ffffff" d="M 47.742188 34.070312 L 35.859375 27.886719 L 35.808594 31.40625 L 47.742188 37.367188 Z M 47.742188 34.070312 " fill-opacity="1" fill-rule="nonzero"/><path fill="#ffffff" d="M 78.941406 22.242188 L 67.058594 15.652344 L 67.007812 19.261719 L 78.941406 25.539062 Z M 78.941406 22.242188 " fill-opacity="1" fill-rule="nonzero"/><path fill="#ffffff" d="M 78.941406 29.058594 L 67.058594 22.46875 L 67.007812 26.082031 L 78.941406 32.355469 Z M 78.941406 29.058594 " fill-opacity="1" fill-rule="nonzero"/><path fill="#ffffff" d="M 47.742188 41.207031 L 35.859375 35.019531 L 35.808594 38.542969 L 47.742188 44.5 Z M 47.742188 41.207031 " fill-opacity="1" fill-rule="nonzero"/><path fill="#ffffff" d="M 47.742188 48.339844 L 35.859375 42.152344 L 35.808594 45.675781 L 47.742188 51.636719 Z M 47.742188 48.339844 " fill-opacity="1" fill-rule="nonzero"/><path fill="#ffffff" d="M 47.742188 55.472656 L 35.859375 49.289062 L 35.808594 52.808594 L 47.742188 58.769531 Z M 47.742188 55.472656 " fill-opacity="1" fill-rule="nonzero"/><path fill="#ffffff" d="M 102.300781 71.90625 L 92.613281 66.5625 L 92.59375 69.152344 L 102.300781 74.292969 Z M 102.300781 71.90625 " fill-opacity="1" fill-rule="nonzero"/><path fill="#ffffff" d="M 102.300781 79.175781 L 92.613281 73.832031 L 92.59375 76.421875 L 102.300781 81.558594 Z M 102.300781 79.175781 " fill-opacity="1" fill-rule="nonzero"/><path fill="#ffffff" d="M 102.300781 86.445312 L 92.613281 81.101562 L 92.59375 83.691406 L 102.300781 88.828125 Z M 102.300781 86.445312 " fill-opacity="1" fill-rule="nonzero"/><path fill="#ffffff" d="M 102.300781 93.714844 L 92.613281 88.371094 L 92.59375 90.960938 L 102.300781 96.097656 Z M 102.300781 93.714844 " fill-opacity="1" fill-rule="nonzero"/><path fill="#ffffff" d="M 47.742188 71.863281 L 35.859375 65.675781 L 35.808594 69.199219 L 47.742188 75.160156 Z M 47.742188 71.863281 " fill-opacity="1" fill-rule="nonzero"/><path fill="#ffffff" d="M 47.742188 79.132812 L 35.859375 72.945312 L 35.808594 76.46875 L 47.742188 82.425781 Z M 47.742188 79.132812 " fill-opacity="1" fill-rule="nonzero"/><path fill="#ffffff" d="M 47.742188 86.402344 L 35.859375 80.214844 L 35.808594 83.738281 L 47.742188 89.695312 Z M 47.742188 86.402344 " fill-opacity="1" fill-rule="nonzero"/><g clip-path="url(#726f6e4609)"><path fill="#ffffff" d="M 105.097656 101.40625 L 105.097656 40.980469 L 90.367188 31.996094 L 83.1875 36.375 L 83.1875 18.773438 L 63.113281 6.53125 L 43.039062 18.773438 L 43.039062 24.105469 L 31.964844 18.179688 L 11.890625 28.925781 L 11.890625 101.40625 L 1.195312 101.40625 L 1.195312 105.460938 L 110.796875 105.460938 L 110.796875 101.40625 Z M 50.472656 100.261719 L 33.128906 100.261719 L 33.128906 20.570312 L 50.472656 29.828125 Z M 81.621094 37.328125 L 78.941406 38.964844 L 78.941406 35.878906 L 67.058594 29.285156 L 67.007812 32.898438 L 78.753906 39.078125 L 75.636719 40.980469 L 75.636719 100.042969 L 64.277344 100.042969 L 64.277344 9.257812 L 81.621094 19.800781 Z M 103.695312 100 L 91.203125 100 L 91.203125 34.613281 L 103.695312 42.207031 Z M 103.695312 100 " fill-opacity="1" fill-rule="nonzero"/></g></svg>