<svg xmlns="http://www.w3.org/2000/svg" xmlns:xlink="http://www.w3.org/1999/xlink" width="150" zoomAndPan="magnify" viewBox="0 0 112.5 112.499997" height="150" preserveAspectRatio="xMidYMid meet" version="1.0"><defs><clipPath id="f215fed219"><path d="M 88 37 L 110.449219 37 L 110.449219 75 L 88 75 Z M 88 37 " clip-rule="nonzero"/></clipPath><clipPath id="3e14f91fe5"><path d="M 1.433594 37 L 24 37 L 24 75 L 1.433594 75 Z M 1.433594 37 " clip-rule="nonzero"/></clipPath><clipPath id="75a283f26d"><path d="M 26.234375 49 L 83 49 L 83 81.488281 L 26.234375 81.488281 Z M 26.234375 49 " clip-rule="nonzero"/></clipPath></defs><g clip-path="url(#f215fed219)"><path fill="#ffffff" d="M 107.738281 37.789062 L 91.433594 37.789062 C 89.882812 37.789062 88.625 39.046875 88.625 40.605469 L 88.625 71.75 C 88.625 73.300781 89.882812 74.570312 91.433594 74.570312 L 107.738281 74.570312 C 109.285156 74.570312 110.554688 73.3125 110.554688 71.75 L 110.554688 40.605469 C 110.554688 39.046875 109.285156 37.789062 107.738281 37.789062 " fill-opacity="1" fill-rule="nonzero"/></g><g clip-path="url(#3e14f91fe5)"><path fill="#ffffff" d="M 20.546875 37.789062 L 4.253906 37.789062 C 2.695312 37.789062 1.433594 39.046875 1.433594 40.605469 L 1.433594 71.75 C 1.433594 73.300781 2.695312 74.570312 4.253906 74.570312 L 20.546875 74.570312 C 22.109375 74.570312 23.378906 73.3125 23.378906 71.75 L 23.378906 40.605469 C 23.367188 39.046875 22.109375 37.789062 20.546875 37.789062 " fill-opacity="1" fill-rule="nonzero"/></g><path fill="#ffffff" d="M 46.355469 34.320312 L 29.800781 44.695312 L 29.714844 44.695312 L 29.78125 44.714844 C 24.144531 47.339844 31.167969 51.417969 31.167969 51.417969 C 41.105469 56.175781 52.886719 47.425781 52.886719 47.425781 C 54.714844 45.820312 56.867188 46.574219 56.867188 46.574219 L 81.007812 68.3125 C 81.210938 68.515625 81.414062 68.71875 81.582031 68.941406 L 81.753906 68.972656 C 81.871094 67.382812 83.546875 66.890625 85.222656 66.839844 L 85.222656 41.003906 C 80.039062 39.9375 70.429688 37.824219 67.628906 35.976562 C 67.628906 35.976562 53.039062 30.425781 46.355469 34.320312 " fill-opacity="1" fill-rule="nonzero"/><g clip-path="url(#75a283f26d)"><path fill="#ffffff" d="M 55.394531 49.828125 C 55.171875 49.925781 37.5 62.605469 26.769531 52.347656 L 26.769531 67.992188 C 27.96875 68.359375 29.238281 68.902344 30.121094 69.648438 C 30.121094 69.648438 46.335938 79.859375 50.210938 80.90625 C 50.210938 80.90625 56.410156 83.394531 56.296875 78.136719 C 56.296875 78.136719 64.277344 82.785156 65.199219 76.015625 C 65.199219 76.015625 74.035156 81.71875 74.21875 73.390625 C 74.21875 73.390625 76.320312 74.492188 78.5 74.628906 C 80.144531 74.746094 81.394531 73.746094 81.917969 72.460938 C 82.644531 72.816406 79.011719 71.023438 78.789062 70.917969 L 55.394531 49.828125 " fill-opacity="1" fill-rule="nonzero"/></g></svg>