<svg xmlns="http://www.w3.org/2000/svg" xmlns:xlink="http://www.w3.org/1999/xlink" width="150" zoomAndPan="magnify" viewBox="0 0 112.5 112.499997" height="150" preserveAspectRatio="xMidYMid meet" version="1.0"><defs><clipPath id="288ad1f3a2"><path d="M 1.246094 51 L 111 51 L 111 105.6875 L 1.246094 105.6875 Z M 1.246094 51 " clip-rule="nonzero"/></clipPath><clipPath id="25e4e71b11"><path d="M 1.246094 6.378906 L 111 6.378906 L 111 52 L 1.246094 52 Z M 1.246094 6.378906 " clip-rule="nonzero"/></clipPath></defs><g clip-path="url(#288ad1f3a2)"><path fill="#ffffff" d="M 110.71875 94.796875 L 110.71875 51.824219 C 110.136719 52.394531 109.507812 52.941406 108.863281 53.433594 C 108.269531 53.894531 107.648438 54.316406 107.003906 54.710938 C 104.886719 56 102.535156 56.878906 100.070312 57.261719 C 96.75 57.769531 93.320312 57.570312 89.964844 57.570312 L 66.238281 57.570312 C 66.152344 57.570312 66.066406 57.570312 65.980469 57.558594 L 65.980469 59.09375 C 65.980469 59.28125 65.992188 59.453125 65.980469 59.640625 C 65.929688 60.640625 65.1875 61.386719 64.183594 61.433594 C 62.414062 61.523438 60.617188 61.433594 58.835938 61.433594 L 50.191406 61.433594 C 49.4375 61.433594 48.679688 61.449219 47.925781 61.433594 C 46.796875 61.410156 46.019531 60.65625 46.003906 59.515625 C 45.992188 58.871094 45.992188 58.214844 45.992188 57.570312 C 45.917969 57.582031 45.832031 57.582031 45.757812 57.582031 C 45.707031 57.582031 45.648438 57.582031 45.597656 57.582031 C 42.230469 57.632812 38.847656 57.582031 35.480469 57.582031 L 20.433594 57.582031 C 16.71875 57.582031 12.917969 57.820312 9.328125 56.667969 C 7.828125 56.183594 6.367188 55.527344 4.992188 54.722656 C 4.347656 54.339844 3.730469 53.929688 3.136719 53.484375 C 2.480469 52.988281 1.859375 52.457031 1.277344 51.886719 L 1.277344 98.71875 C 1.277344 99.066406 1.265625 99.414062 1.289062 99.761719 C 1.539062 103.03125 4.199219 105.554688 7.480469 105.605469 C 8.285156 105.617188 9.078125 105.605469 9.882812 105.605469 L 101.160156 105.605469 C 102.226562 105.605469 103.300781 105.605469 104.367188 105.605469 C 107.984375 105.59375 110.707031 102.746094 110.71875 99.167969 C 110.71875 97.679688 110.71875 96.242188 110.71875 94.796875 Z M 110.71875 94.796875 " fill-opacity="1" fill-rule="nonzero"/></g><g clip-path="url(#25e4e71b11)"><path fill="#ffffff" d="M 110.695312 32.667969 L 110.695312 28.410156 C 110.460938 25.164062 107.808594 22.613281 104.515625 22.5625 C 104.292969 22.5625 104.082031 22.5625 103.859375 22.5625 L 77.308594 22.5625 L 77.308594 13.3125 C 77.308594 11.433594 76.777344 9.648438 75.414062 8.285156 C 74.140625 7 72.417969 6.402344 70.625 6.390625 C 69 6.390625 67.390625 6.390625 65.769531 6.390625 L 42.054688 6.390625 C 41.746094 6.390625 41.4375 6.378906 41.140625 6.390625 C 37.585938 6.464844 34.785156 9.277344 34.699219 12.832031 C 34.625 16.0625 34.664062 19.320312 34.6875 22.5625 L 8.808594 22.5625 C 8.421875 22.5625 8.050781 22.5625 7.667969 22.5625 C 6.007812 22.5625 4.460938 23.132812 3.234375 24.273438 C 2.046875 25.386719 1.414062 26.910156 1.316406 28.507812 L 1.316406 34.515625 C 1.316406 35.378906 1.316406 36.234375 1.316406 37.101562 C 1.316406 37.472656 1.316406 37.832031 1.339844 38.203125 C 1.351562 38.464844 1.375 38.710938 1.402344 38.972656 C 1.402344 39.007812 1.414062 39.046875 1.414062 39.082031 C 1.476562 39.441406 1.527344 39.800781 1.601562 40.148438 C 1.785156 41.015625 2.058594 41.871094 2.367188 42.699219 C 2.367188 42.710938 2.367188 42.710938 2.378906 42.722656 C 2.378906 42.738281 2.378906 42.738281 2.390625 42.75 C 2.40625 42.773438 2.40625 42.785156 2.417969 42.8125 C 2.492188 42.984375 2.578125 43.15625 2.664062 43.332031 C 2.824219 43.652344 2.988281 43.960938 3.160156 44.273438 C 3.183594 44.320312 3.210938 44.371094 3.246094 44.40625 C 3.480469 44.804688 3.730469 45.199219 4.003906 45.570312 C 4.113281 45.734375 4.238281 45.871094 4.335938 46.03125 C 4.324219 46.003906 4.3125 45.980469 4.300781 45.957031 C 4.324219 45.992188 4.335938 46.019531 4.359375 46.042969 C 4.570312 46.304688 4.792969 46.5625 5.03125 46.808594 C 5.390625 47.195312 5.773438 47.566406 6.167969 47.925781 C 6.332031 48.074219 6.492188 48.210938 6.664062 48.347656 C 6.6875 48.371094 6.726562 48.394531 6.761719 48.421875 C 6.972656 48.554688 7.0625 48.605469 7.074219 48.617188 C 7.0625 48.617188 7 48.570312 6.910156 48.519531 C 7.171875 48.691406 7.417969 48.890625 7.679688 49.0625 C 8.375 49.511719 9.089844 49.90625 9.835938 50.253906 C 10.554688 50.476562 10.167969 50.390625 9.933594 50.300781 C 9.957031 50.316406 9.972656 50.316406 9.996094 50.328125 C 10.207031 50.402344 10.402344 50.488281 10.613281 50.550781 C 11.011719 50.6875 11.40625 50.808594 11.804688 50.921875 C 12.238281 51.03125 12.671875 51.132812 13.117188 51.21875 C 13.265625 51.242188 13.414062 51.269531 13.5625 51.292969 C 13.648438 51.304688 13.734375 51.304688 13.808594 51.316406 C 14.910156 51.417969 16.027344 51.390625 17.128906 51.390625 L 45.796875 51.390625 C 45.882812 51.390625 45.96875 51.390625 46.054688 51.40625 L 46.054688 48.421875 C 46.054688 47.554688 45.929688 46.625 46.636719 45.980469 C 47.242188 45.421875 48.035156 45.511719 48.792969 45.511719 L 63.777344 45.511719 C 63.925781 45.511719 64.085938 45.511719 64.234375 45.511719 C 65.199219 45.558594 65.878906 46.226562 66.003906 47.15625 C 66.015625 47.207031 66.015625 47.257812 66.015625 47.304688 C 66.015625 47.332031 66.015625 47.355469 66.015625 47.378906 L 66.015625 51.417969 C 66.105469 51.40625 66.191406 51.40625 66.277344 51.40625 L 66.4375 51.40625 C 69.71875 51.34375 73 51.40625 76.269531 51.40625 L 96.675781 51.40625 C 97.210938 51.40625 97.730469 51.378906 98.261719 51.332031 C 98.363281 51.316406 98.472656 51.304688 98.570312 51.292969 C 98.695312 51.269531 98.832031 51.257812 98.957031 51.230469 C 99.390625 51.144531 99.835938 51.058594 100.269531 50.933594 C 100.703125 50.824219 101.125 50.6875 101.542969 50.539062 C 101.742188 50.464844 101.929688 50.390625 102.125 50.316406 C 102.894531 49.957031 103.625 49.570312 104.332031 49.113281 C 104.566406 48.964844 104.789062 48.816406 105.011719 48.65625 C 105.074219 48.605469 105.269531 48.457031 105.359375 48.394531 C 105.359375 48.394531 105.371094 48.382812 105.371094 48.382812 C 105.382812 48.371094 105.40625 48.359375 105.40625 48.347656 C 105.582031 48.210938 105.742188 48.0625 105.902344 47.925781 C 106.300781 47.578125 106.671875 47.207031 107.042969 46.808594 C 107.277344 46.5625 107.5 46.316406 107.710938 46.042969 C 107.722656 46.019531 107.75 46.003906 107.761719 45.980469 C 107.859375 45.820312 107.996094 45.660156 108.105469 45.511719 C 108.34375 45.175781 108.566406 44.828125 108.761719 44.484375 C 108.800781 44.40625 108.851562 44.332031 108.886719 44.273438 C 109.074219 43.9375 109.257812 43.601562 109.417969 43.257812 C 109.492188 43.09375 109.582031 42.921875 109.65625 42.761719 C 109.964844 41.945312 110.238281 41.113281 110.421875 40.246094 C 110.484375 39.976562 110.535156 39.691406 110.582031 39.417969 C 110.582031 39.417969 110.582031 39.40625 110.582031 39.40625 C 110.582031 39.40625 110.582031 39.394531 110.582031 39.394531 C 110.582031 39.378906 110.582031 39.367188 110.582031 39.355469 C 110.582031 39.34375 110.582031 39.332031 110.597656 39.320312 C 110.609375 39.195312 110.632812 39.035156 110.644531 38.933594 C 110.671875 38.710938 110.683594 38.476562 110.695312 38.253906 C 110.707031 37.894531 110.71875 37.535156 110.734375 37.175781 L 110.734375 34.722656 C 110.707031 33.992188 110.695312 33.335938 110.695312 32.667969 Z M 71.15625 12.878906 C 71.15625 12.894531 71.15625 12.90625 71.167969 12.90625 C 71.167969 12.90625 71.167969 12.917969 71.167969 12.917969 C 71.179688 12.980469 71.191406 13.015625 71.167969 12.953125 C 71.15625 12.96875 71.132812 12.941406 71.117188 12.917969 C 71.179688 16.136719 71.15625 19.355469 71.132812 22.578125 L 40.878906 22.578125 L 40.878906 13.574219 C 40.878906 13.363281 40.878906 13.140625 40.878906 12.929688 C 40.84375 12.980469 40.816406 12.992188 40.804688 12.980469 C 40.78125 13.015625 40.78125 12.941406 40.792969 12.855469 C 40.730469 12.929688 40.691406 12.941406 40.792969 12.832031 C 40.792969 12.78125 40.804688 12.746094 40.816406 12.695312 C 40.816406 12.695312 40.816406 12.695312 40.804688 12.695312 C 40.804688 12.695312 40.804688 12.695312 40.816406 12.695312 C 40.828125 12.671875 40.828125 12.632812 40.84375 12.609375 C 40.753906 12.609375 40.78125 12.582031 40.855469 12.570312 C 40.867188 12.507812 40.890625 12.484375 40.890625 12.558594 C 40.917969 12.558594 40.941406 12.546875 40.976562 12.546875 C 40.976562 12.535156 40.976562 12.535156 40.976562 12.523438 C 40.976562 12.523438 40.976562 12.535156 40.976562 12.535156 C 41.027344 12.523438 41.066406 12.523438 41.113281 12.507812 C 41.164062 12.460938 41.1875 12.445312 41.199219 12.433594 C 41.1875 12.445312 41.164062 12.472656 41.125 12.507812 C 41.226562 12.496094 41.300781 12.496094 41.261719 12.523438 C 41.273438 12.535156 41.261719 12.558594 41.214844 12.597656 C 41.3125 12.597656 41.410156 12.597656 41.511719 12.597656 L 69.757812 12.597656 C 70.128906 12.597656 70.488281 12.582031 70.859375 12.597656 C 70.832031 12.582031 70.820312 12.582031 70.808594 12.570312 C 70.722656 12.523438 70.746094 12.507812 70.808594 12.496094 C 70.773438 12.472656 70.785156 12.472656 70.820312 12.496094 C 70.832031 12.496094 70.859375 12.496094 70.871094 12.496094 C 70.820312 12.460938 70.796875 12.433594 70.785156 12.421875 C 70.785156 12.421875 70.820312 12.445312 70.882812 12.496094 C 70.933594 12.496094 70.984375 12.507812 71.03125 12.507812 C 71.058594 12.507812 71.070312 12.523438 71.09375 12.523438 C 71.09375 12.496094 71.09375 12.484375 71.105469 12.484375 C 71.105469 12.484375 71.117188 12.496094 71.117188 12.523438 C 71.230469 12.546875 71.28125 12.570312 71.117188 12.582031 C 71.117188 12.609375 71.117188 12.621094 71.117188 12.644531 C 71.15625 12.65625 71.179688 12.671875 71.191406 12.671875 C 71.179688 12.671875 71.144531 12.671875 71.117188 12.65625 L 71.117188 12.671875 C 71.132812 12.683594 71.15625 12.695312 71.179688 12.71875 C 71.167969 12.71875 71.15625 12.707031 71.132812 12.695312 C 71.132812 12.71875 71.144531 12.730469 71.144531 12.757812 C 71.179688 12.804688 71.230469 12.855469 71.265625 12.878906 C 71.230469 12.855469 71.191406 12.820312 71.15625 12.792969 C 71.15625 12.84375 71.15625 12.855469 71.15625 12.878906 Z M 71.15625 12.878906 " fill-opacity="1" fill-rule="nonzero"/></g></svg>