<?xml version="1.0" encoding="UTF-8"?><svg id="uuid-539fe412-738c-4f42-bde3-dfe7318086f5" xmlns="http://www.w3.org/2000/svg" viewBox="0 0 150 150"><path d="M149.78,70.45v9.33c-.45,1.68-.39,3.6-.62,5.35-4.26,32.13-29.75,58.35-61.7,63.63l-7.64.96c-3.08-.13-6.25.18-9.33,0C9.35,146.14-21.89,72.4,18.89,26.02,62.86-24,145.92,4.49,149.78,70.45Z" style="fill:#3b82f6;"/><path d="M80.57,64.73h13.92c2.17,0,1.21,5.21,1.08,6.52-.18,1.89-.55,6.31-1.06,7.9-.21.66-1.32,1.58-1.94,1.58h-12v34.08c0,.15-.48.75-.64.96-.56.34-11.67.35-12.98.18-.92-.12-1.24-.42-1.6-1.28-.58-11.33.36-22.61.18-33.93h-9.44c-.65,0-1.68-1.31-1.78-2.06-.24-1.83-.29-10.5.02-12.17.09-.46,1.25-1.77,1.43-1.77h9.44c.09-9.55-1.35-21.55,7.71-27.65,6.41-4.31,13.62-2.84,20.92-3.06.6.1,1.31.81,1.53,1.35.46,1.16.4,8.38.26,10.01-.43,4.75-7.97,1.71-11.76,3.28-1.7.71-3.3,2.88-3.3,4.7v11.36Z" style="fill:#fff;"/></svg>