<?xml version="1.0" encoding="UTF-8"?><svg id="uuid-b5c69741-9f36-4e68-a8b5-b5bb58ea324a" xmlns="http://www.w3.org/2000/svg" viewBox="0 0 150 150"><path d="M149.78,70.45v9.33c-.45,1.68-.39,3.6-.62,5.35-4.26,32.13-29.75,58.35-61.7,63.63l-7.64.96c-3.08-.13-6.25.18-9.33,0C9.35,146.14-21.89,72.4,18.89,26.02,62.86-24,145.92,4.49,149.78,70.45Z" style="fill:#3b82f6;"/><path d="M95.87,117.44h-41.74c-11.89,0-21.57-9.68-21.57-21.57v-41.74c0-11.89,9.68-21.57,21.57-21.57h41.74c11.89,0,21.57,9.68,21.57,21.57v41.74c0,11.89-9.68,21.57-21.57,21.57ZM54.13,40.96c-7.26,0-13.17,5.91-13.17,13.17v41.74c0,7.26,5.91,13.17,13.17,13.17h41.74c7.26,0,13.17-5.91,13.17-13.17v-41.74c0-7.26-5.91-13.17-13.17-13.17h-41.74Z" style="fill:#fff;"/><path d="M75,96.57c-11.9,0-21.57-9.68-21.57-21.57s9.68-21.57,21.57-21.57,21.57,9.68,21.57,21.57-9.68,21.57-21.57,21.57ZM75,61.83c-7.26,0-13.17,5.91-13.17,13.17s5.91,13.17,13.17,13.17,13.17-5.91,13.17-13.17-5.91-13.17-13.17-13.17Z" style="fill:#fff;"/><path d="M97.86,57.61c-2.82,0-5.11-2.29-5.11-5.11s2.29-5.11,5.11-5.11,5.11,2.29,5.11,5.11-2.29,5.11-5.11,5.11Z" style="fill:#fff;"/></svg>