<?xml version="1.0" encoding="UTF-8"?><svg id="uuid-b34b6b3c-cd7b-463a-a24a-fd5190b9e6d6" xmlns="http://www.w3.org/2000/svg" viewBox="0 0 13664 3271.43"><path d="M6965.92,697.08c551.21,65.15,636.51,868.92,183.91,1109.75l341.74,809.28h-423.25l-279.48-694.53c-20.61-21.08-183.25-25.7-212.03,7.21v666.9c0,4.14,17.28,10.44,13.65,20.42h-395.94c-3.63-9.97,13.65-16.27,13.65-20.42V717.49c0-4.14-17.28-10.44-13.65-20.42h771.41ZM6597.28,1010.11l-20.48,20.42v544.41l20.48,20.42h286.72c24.7,0,112.47-77.94,127.69-104.08,66.53-114.23,60.45-352.13-47.76-438.35-11.51-9.17-71.4-42.81-79.94-42.81h-286.72Z" style="fill:#fff;"/><path d="M3655.01,2616.11l599.21-1910.96,336.58-9.01,620.68,1919.97h-409.6l-96.94-393.29-546.34,6.51-94,386.78h-409.6ZM4242.1,1908.38h382.29l-184.46-694.2-197.84,694.2Z" style="fill:#fff;"/><path d="M1802.51,2525.09c-43.98,51.99-37.1,149.15,32.66,169.92,123.26,36.69,287.47-142.41,406.52-134.16,74.57,5.16,232.69,161.91,205.93,246.41-19.56,61.75-225.4,173.67-289.58,201.62-374.2,163-810.95,140.19-1165.67-59.06-32.66-18.34-127.96-74.14-148.97-96.49-104.98-111.7,101.24-329.25,245.49-285.43,81.99,24.91,301.21,226.58,382.23,82.94,67.95-120.47-124.28-181.71-155.11-309.45-139.69-578.7,793.59-534.56,628.54,5.52-34.1,111.58-85.7,111.6-142.04,178.18Z" style="fill:#fff;"/><path d="M410.37,2420.74c-140.83-128.59-251.63-509.38-264.08-696.27-15.77-236.78,83.59-711.34,267.18-876.57,98.01-88.21,280.15,91.04,291.89,170.02,18,121.1-218.75,320.47-116.79,442.56,94.37,113.01,189.15-57.61,254.75-102.43,149.68-102.27,372.95-44.83,460.69,110.64,161.47,286.1-129.43,601.08-423.75,463.25-98.35-46.06-167.04-216.01-276.99-132.58-148.73,112.87,191.24,353.91,68.79,517.61-57.31,76.61-168.09,189.24-261.68,103.78Z" style="fill:#fff;"/><path d="M1802.51,747.27c21.72,25.68,69.8,47.85,97.19,86.77,164.98,234.4-9.71,535.75-300.05,516.76-276.29-18.08-391.63-353.52-211.03-551.58,48.43-53.1,111.08-46.66,94.86-148.88-20.87-131.45-192.69-59.34-267.98-23.69-109.08,51.64-150.93,140.75-284.25,43.15-212.2-155.34-116.22-245.86,61.11-347.25,351.35-200.87,783.43-221.18,1156.42-63.45,88.52,37.43,326.03,151.1,302.38,264.68-10.18,48.87-153.83,183.86-209.48,187.75-118.86,8.31-263.92-176.42-406.59-134.07-69.75,20.71-76.53,117.89-32.59,169.82Z" style="fill:#fff;"/><path d="M2526.03,1803.84c-20.25,16.55-40.29,56.75-73.72,82.93-261.59,204.78-612.44-28.79-524.64-346.15,57.28-207.01,301.34-292.38,485.32-183.88,87.18,51.41,138.43,187.97,238.44,115.94,175.14-126.14-180.44-346.6-67.55-516.42,62.13-93.46,180.53-195.6,279.13-88.96,332.71,359.85,327.07,1164.04,5.86,1529.98-97.45,111.02-184.4,39.19-258.47-53.25-136.58-170.46,53.48-257.9,82.73-421.44,21.22-118.7-76.6-192.74-167.11-118.75Z" style="fill:#fff;"/><path d="M13055.27,697.08c421.6,49.83,529.82,630.17,224.42,863.33-30.84,23.55-88.6,23.59-81.02,61.97,398.19,102.3,395.3,761.09,58.98,936.88-28.31,14.8-149.84,56.85-175.07,56.85h-648.53V697.08c196.32,16.84,429.45-22.66,621.22,0ZM12570.58,1554.52h471.04c11.44,0,82.07-29.34,98.43-37.98,229.77-121.48,228.93-564.17-26.31-659.97-35.64-13.38-134.54-36.99-167.69-36.99h-354.98l-20.48,20.42v714.54ZM12570.58,1690.62v782.59l20.48,20.42h423.25c66.76,0,198.29-59.02,246.24-108.41,141.51-145.75,138.24-475.13-14.2-612.87-20.51-18.53-129.66-81.73-150.12-81.73h-525.65Z" style="fill:#fff;"/><rect x="5457.24" y="697.08" width="382.29" height="1919.04" style="fill:#fff;"/><path d="M9604.53,673.37c309.28-41.69,563.68,69.76,678.88,364.2,94.26,240.91,93.85,985.58,3.56,1227.97-189.89,509.74-916.91,508.33-1112.77,13.85-105.12-265.38-105.55-991.59,3.83-1255.41,72.34-174.47,233.77-324.64,426.51-350.62ZM9631.83,809.48c-237.44,32.07-362.3,274.27-379.48,492.77-15.2,193.31-20.55,683.47,28.55,857.17,130.53,461.8,756.59,481.21,890.23,17.88,56.76-196.78,60.4-775.56,17.64-977.33-61.36-289.59-259.25-430.7-556.94-390.49Z" style="fill:#fff;"/><path d="M11242.92,673.37c308.4-41.57,564.04,70.41,678.88,364.2,96.75,247.52,96.83,1037.4-13.39,1279.12-193.42,424.18-839.79,443.81-1060.64,36.51-146.66-270.47-148.15-1047.49-31.36-1329.22,72.33-174.47,233.77-324.64,426.51-350.62ZM11270.22,809.48c-164.82,22.26-291.85,160.77-341.86,312.51-75.9,230.29-76.86,895.86,19.45,1117.88,169.01,389.61,739.14,362.35,861.71-62.57,58.92-204.27,61.77-827.64,3.59-1031.37-74.73-261.67-274.72-372.67-542.89-336.45Z" style="fill:#fff;"/><path d="M8529.22,697.08l150.18.13c-10.07,20.4-13.86,37.18-14.44,60.33-11.32,453.45,36.54,959.3,1.29,1403.12-49.02,617.06-870.81,651.34-966.35,91.27-8.76-51.33,7.34-104.12-17.16-152.88l150.25-.2c-54.8,389.41,444.03,598.94,635.38,232.01,15.66-30.02,60.87-143.73,60.87-170.7V697.08Z" style="fill:#fff;"/></svg>