<?xml version="1.0" encoding="UTF-8"?><svg id="uuid-c7672920-88f7-495f-b3d4-67d799a08faf" xmlns="http://www.w3.org/2000/svg" viewBox="0 0 3264 3271.43"><path d="M1802.51,2525.09c-43.98,51.99-37.1,149.15,32.66,169.92,123.26,36.69,287.47-142.41,406.52-134.16,74.57,5.16,232.69,161.91,205.93,246.41-19.56,61.75-225.4,173.67-289.58,201.62-374.2,163-810.95,140.19-1165.67-59.06-32.66-18.34-127.96-74.14-148.97-96.49-104.98-111.7,101.24-329.25,245.49-285.43,81.99,24.91,301.21,226.58,382.23,82.94,67.95-120.47-124.28-181.71-155.11-309.45-139.69-578.7,793.59-534.56,628.54,5.52-34.1,111.58-85.7,111.6-142.04,178.18Z" style="fill:#fff;"/><path d="M410.37,2420.74c-140.83-128.59-251.63-509.38-264.08-696.27-15.77-236.78,83.59-711.34,267.18-876.57,98.01-88.21,280.15,91.04,291.89,170.02,18,121.1-218.75,320.47-116.79,442.56,94.37,113.01,189.15-57.61,254.75-102.43,149.68-102.27,372.95-44.83,460.69,110.64,161.47,286.1-129.43,601.08-423.75,463.25-98.35-46.06-167.04-216.01-276.99-132.58-148.73,112.87,191.24,353.91,68.79,517.61-57.31,76.61-168.09,189.24-261.68,103.78Z" style="fill:#fff;"/><path d="M1802.51,747.27c21.72,25.68,69.8,47.85,97.19,86.77,164.98,234.4-9.71,535.75-300.05,516.76-276.29-18.08-391.63-353.52-211.03-551.58,48.43-53.1,111.08-46.66,94.86-148.88-20.87-131.45-192.69-59.34-267.98-23.69-109.08,51.64-150.93,140.75-284.25,43.15-212.2-155.34-116.22-245.86,61.11-347.25,351.35-200.87,783.43-221.18,1156.42-63.45,88.52,37.43,326.03,151.1,302.38,264.68-10.18,48.87-153.83,183.86-209.48,187.75-118.86,8.31-263.92-176.42-406.59-134.07-69.75,20.71-76.53,117.89-32.59,169.82Z" style="fill:#fff;"/><path d="M2526.03,1803.84c-20.25,16.55-40.29,56.75-73.72,82.93-261.59,204.78-612.44-28.79-524.64-346.15,57.28-207.01,301.34-292.38,485.32-183.88,87.18,51.41,138.43,187.97,238.44,115.94,175.14-126.14-180.44-346.6-67.55-516.42,62.13-93.46,180.53-195.6,279.13-88.96,332.71,359.85,327.07,1164.04,5.86,1529.98-97.45,111.02-184.4,39.19-258.47-53.25-136.58-170.46,53.48-257.9,82.73-421.44,21.22-118.7-76.6-192.74-167.11-118.75Z" style="fill:#fff;"/></svg>