<?xml version="1.0" encoding="UTF-8"?><svg id="uuid-40c8f1dd-2d82-41a1-954f-4b0091360453" xmlns="http://www.w3.org/2000/svg" viewBox="0 0 150 150"><circle cx="75.17" cy="75" r="58.55" style="fill:#fff;"/><path d="M149.78,70.45v9.33c-.45,1.68-.39,3.6-.62,5.35-4.26,32.13-29.75,58.35-61.7,63.63l-7.64.96c-3.08-.13-6.25.18-9.33,0C9.35,146.14-21.89,72.4,18.89,26.02,62.86-24,145.92,4.49,149.78,70.45ZM63.72,42.56c-6.79.16-14.33.27-21.04,1.12-11,1.39-12.62,7.29-13.59,17.3s-1.09,23.52.67,33.43c2.13,12.04,10.02,12.09,20.47,12.76,15.24.97,31.14.79,46.35,0,8.8-.46,20.54.82,23.38-9.85,2.61-9.77,2.36-29.38.92-39.51-1.91-13.49-8.42-13.96-20.52-14.75s-24.65-.79-36.64-.5Z" style="fill:#3b82f6;"/><polygon points="65.82 61.13 90.02 74.97 65.82 89.11 65.82 61.13" style="fill:#3b82f6;"/></svg>